# xmcd
#
# Track frame offsets: 
#        150
#        21978
#        45845
#        64521
#        83526
#        103247
#        120942
#        143580
#        164180
#        184117
#        211159
#        232976
#
# Disc length: 3460 seconds
#
# Revision: 1
# Processed by: cddbd v1.5.2PL0 Copyright (c) Steve Scherf et al.
# Submitted via: ExactAudioCopy v1.0b4
#
DISCID=930d820c
DTITLE=Marcus Malone - Stand Or Fall
DYEAR=2014
DGENRE=Blues
TTITLE0=Living The Blues
TTITLE1=Stand Or Fall
TTITLE2=Ain't No Tellin
TTITLE3=It's Gonna Take Time
TTITLE4=Detroit City Blues
TTITLE5=Slow Down
TTITLE6=Jealous Kind
TTITLE7=One Woman Man
TTITLE8=Can't Stop Lovin' You
TTITLE9=Under Pressure
TTITLE10=Living The Blues
TTITLE11=It's Gonna Take Time (Extended Version)
EXTD=
EXTT0=
EXTT1=
EXTT2=
EXTT3=
EXTT4=
EXTT5=
EXTT6=
EXTT7=
EXTT8=
EXTT9=
EXTT10=
EXTT11=
PLAYORDER=
